<?xml version="1.0" standalone="no"?><!DOCTYPE svg PUBLIC "-//W3C//DTD SVG 1.1//EN" "http://www.w3.org/Graphics/SVG/1.1/DTD/svg11.dtd"><svg t="1593685637324" class="icon" viewBox="0 0 1024 1024" version="1.1" xmlns="http://www.w3.org/2000/svg" p-id="8029" xmlns:xlink="http://www.w3.org/1999/xlink" width="200" height="200"><defs><style type="text/css"></style></defs><path d="M213.333333 512H128c-46.933333 0-85.333333 38.4-85.333333 85.333333v256c0 46.933333 38.4 85.333333 85.333333 85.333334h85.333333c46.933333 0 85.333333-38.4 85.333334-85.333334v-256c0-46.933333-38.4-85.333333-85.333334-85.333333zM554.666667 85.333333h-85.333334c-46.933333 0-85.333333 38.4-85.333333 85.333334v682.666666c0 46.933333 38.4 85.333333 85.333333 85.333334h85.333334c46.933333 0 85.333333-38.4 85.333333-85.333334V170.666667c0-46.933333-38.4-85.333333-85.333333-85.333334zM896 341.333333h-85.333333c-46.933333 0-85.333333 38.4-85.333334 85.333334v426.666666c0 46.933333 38.4 85.333333 85.333334 85.333334h85.333333c46.933333 0 85.333333-38.4 85.333333-85.333334V426.666667c0-46.933333-38.4-85.333333-85.333333-85.333334z" p-id="8030"></path></svg>